<?xml version="1.0" standalone="no"?>
<!DOCTYPE svg PUBLIC "-//W3C//DTD SVG 20010904//EN"
 "http://www.w3.org/TR/2001/REC-SVG-20010904/DTD/svg10.dtd">
<svg version="1.0" xmlns="http://www.w3.org/2000/svg"
 width="894.000000pt" height="894.000000pt" viewBox="0 0 894.000000 894.000000"
 preserveAspectRatio="xMidYMid meet">
<metadata>
Created by potrace 1.14, written by Peter Selinger 2001-2017
</metadata>
<g transform="translate(0.000000,894.000000) scale(0.100000,-0.100000)"
fill="#000000" stroke="none">
<path d="M3483 7850 c-17 -5 -18 -23 -18 -305 l0 -300 -495 -2 c-272 -1 -517
-2 -545 -3 l-50 0 1 -296 c0 -178 -3 -297 -9 -301 -5 -3 -160 -6 -343 -6
l-334 1 0 -604 0 -604 -304 0 -305 0 0 -1200 0 -1200 262 1 c144 0 281 1 305
0 l42 -1 0 -545 c0 -300 3 -545 8 -546 4 0 153 -2 332 -3 179 -2 330 -4 335
-5 8 -1 11 -101 10 -308 0 -170 1 -316 3 -325 4 -16 46 -17 559 -17 305 0 558
-2 561 -5 2 -3 5 -150 4 -326 0 -176 2 -320 6 -321 4 -1 530 -2 1170 -2 l1162
-2 0 30 c1 17 1 93 0 170 0 77 0 149 -1 160 -1 209 4 287 16 291 7 3 260 6
562 7 l548 2 0 322 c0 178 2 324 5 324 3 1 156 3 340 3 l335 2 3 547 2 547 38
0 c20 1 160 1 310 1 149 0 273 3 274 7 0 4 2 544 3 1200 l2 1192 -314 0 -313
0 0 604 0 603 -327 1 c-181 0 -335 1 -343 1 -13 1 -15 41 -14 301 l0 300 -100
0 c-56 1 -301 1 -546 1 l-445 0 1 304 c1 168 -1 305 -5 306 -40 3 -2375 3
-2388 -1z"/>
</g>
</svg>
